HIERARCHY
ROOT Hips
{
	OFFSET	0.00	0.00	0.00
	CHANNELS 6 Xposition Yposition Zposition Zrotation Xrotation Yrotation
	JOINT LeftHip
	{
		OFFSET	 3.430000	 0.000000	 0.000000
		CHANNELS 3 Zrotation Xrotation Yrotation
		JOINT LeftKnee
		{
			OFFSET	 0.000000	-18.469999	 0.000000
			CHANNELS 3 Zrotation Xrotation Yrotation
			JOINT LeftAnkle
			{
				OFFSET	 0.000000	-17.950001	 0.000000
				CHANNELS 3 Zrotation Xrotation Yrotation
				End Site 
				{
					OFFSET	 0.000000	-3.119996	 0.000000
				}
			}
		}
	}
	JOINT RightHip
	{
		OFFSET	-3.430000	 0.000000	 0.000000
		CHANNELS 3 Zrotation Xrotation Yrotation
		JOINT RightKnee
		{
			OFFSET	 0.000000	-18.809999	 0.000000
			CHANNELS 3 Zrotation Xrotation Yrotation
			JOINT RightAnkle
			{
				OFFSET	 0.000000	-17.570000	 0.000000
				CHANNELS 3 Zrotation Xrotation Yrotation
				End Site 
				{
					OFFSET	 0.000000	-3.250000	 0.000000
				}
			}
		}
	}
	JOINT Chest
	{
		OFFSET	 0.000000	 4.570000	 0.000000
		CHANNELS 3 Zrotation Xrotation Yrotation
		JOINT LeftCollar
		{
			OFFSET	 1.060000	 15.330000	 1.760000
			CHANNELS 3 Zrotation Xrotation Yrotation
			JOINT LeftShoulder
			{
				OFFSET	 5.810000	 0.000000	 0.000000
				CHANNELS 3 Zrotation Xrotation Yrotation
				JOINT LeftElbow
				{
					OFFSET	 0.000000	-12.080000	 0.000000
					CHANNELS 3 Zrotation Xrotation Yrotation
					JOINT LeftWrist
					{
						OFFSET	 0.000000	-9.820000	 0.000000
						CHANNELS 3 Zrotation Xrotation Yrotation
						End Site 
						{
							OFFSET	 0.000000	-7.369996	 0.000000
						}
					}
				}
			}
		}
		JOINT RightCollar
		{
			OFFSET	-1.060000	 15.330000	 1.760000
			CHANNELS 3 Zrotation Xrotation Yrotation
			JOINT RightShoulder
			{
				OFFSET	-6.060000	 0.000000	 0.000000
				CHANNELS 3 Zrotation Xrotation Yrotation
				JOINT RightElbow
				{
					OFFSET	 0.000000	-11.900000	 0.000000
					CHANNELS 3 Zrotation Xrotation Yrotation
					JOINT RightWrist
					{
						OFFSET	 0.000000	-9.520000	 0.000000
						CHANNELS 3 Zrotation Xrotation Yrotation
						End Site 
						{
							OFFSET	 0.000000	-7.140012	 0.000000
						}
					}
				}
			}
		}
		JOINT Neck
		{
			OFFSET	 0.000000	 17.620001	 0.000000
			CHANNELS 3 Zrotation Xrotation Yrotation
			JOINT Head
			{
				OFFSET	 0.000000	 5.190000	 0.000000
				CHANNELS 3 Zrotation Xrotation Yrotation
				End Site 
				{
					OFFSET	 0.000000	 4.140008	 0.000000
				}
			}
		}
	}
}

MOTION
Frames: 21
Frame Time: 0.033333
8.0385 -5.6325 -52.2036 2.04154 -1.6998 33.3292 25.998 -10.3648 6.8137 -2.29646 21.3309 4.43174 -18.7014 -3.00082 -2.9878 -39.4558 -15.3313 -20.3314 3.67901 54.5111 2.31807 21.9024 -16.9045 14.9039 7.85946 55.2929 2.4175 0 0 0 17.6667 -2.88686 26.1139 -31.7825 -33.0771 -20.7416 23.3876 -25.9948 -18.1272 0 0 0 -48.5884 -37.8371 -58.9264 34.2574 -54.8559 23.6561 -9.94244 -7.25589 39.1844 0 0 0 -10.9999 -33.8119 30.6405 
7.8049 -5.8033 -52.3895 1.21062 -1.49152 34.6122 26.0176 -10.8811 6.58317 -2.30905 21.5396 4.56383 -20.0321 -1.97547 -3.91853 -39.4519 -13.592 -19.24 3.90559 53.612 1.8087 23.5211 -18.0119 16.0444 9.3922 53.8535 1.06285 0 0 0 17.4018 -2.81128 26.8308 -32.1147 -33.2543 -20.8337 23.3293 -25.8905 -18.5085 0 0 0 -51.459 -39.4205 -61.6095 42.9862 -58.5547 31.2159 -6.72926 -0.347298 45.391 0 0 0 -10.9816 -33.4003 30.3883 
7.481 -6.1021 -52.6406 0.943656 -1.36582 36.0403 26.4452 -12.921 6.43849 -2.48455 22.2436 4.72406 -22.1533 -0.585199 -6.42754 -40.1286 -11.7564 -18.5678 3.48564 53.0347 1.96588 25.0607 -19.7512 17.211 9.58082 53.7174 1.08341 0 0 0 17.6469 -4.25696 28.2323 -32.8633 -33.5188 -21.3119 23.2483 -25.7539 -18.9368 0 0 0 -55.2311 -41.6778 -64.0812 53.2962 -60.6851 40.6564 -6.41522 3.60656 54.2045 0 0 0 -10.712 -34.1119 29.3395 
7.157 -6.4813 -52.8767 0.91807 -1.12982 37.5685 26.9261 -15.9285 6.39531 -2.68366 22.7874 4.68 -24.0044 0.29616 -9.17762 -41.0162 -9.8201 -17.9286 3.01964 52.659 2.38009 26.1575 -22.4265 17.7784 8.99828 54.0854 1.90893 0 0 0 18.4112 -6.40972 29.6926 -33.6837 -33.8574 -21.9106 23.2254 -25.7266 -19.465 0 0 0 -59.3018 -44.6629 -65.7319 61.0944 -61.3584 48.2269 -9.20996 1.03037 62.6442 0 0 0 -10.4053 -35.1769 27.7954 
6.7552 -6.9434 -53.1002 1.2861 -0.692943 39.5099 26.9222 -19.5815 6.37956 -2.80182 23.2587 4.48527 -24.5622 1.32112 -10.9255 -42.3819 -7.74685 -17.6422 3.50579 52.358 2.57715 27.4854 -25.606 18.6225 7.48844 55.023 3.47165 0 0 0 19.8937 -9.44921 31.1163 -34.4832 -34.1066 -22.4575 23.1116 -25.8346 -19.9775 0 0 0 -62.7005 -47.4713 -65.8775 61.8977 -61.1561 49.947 -10.1258 -1.95234 68.4819 0 0 0 -10.1324 -36.6363 25.4886 
6.4815 -7.3577 -53.4015 1.22074 -0.110537 41.6083 26.517 -22.6993 6.45052 -2.59288 22.8462 3.87891 -24.6876 2.47173 -12.5956 -43.4771 -6.31524 -17.9353 4.27791 51.9348 2.37084 28.7619 -28.5835 18.981 5.75108 56.2146 5.15655 0 0 0 21.7523 -13.3807 32.1944 -34.4454 -34.1293 -22.5139 23.0464 -26.1427 -20.7573 0 0 0 -66.1271 -50.5517 -64.2997 52.324 -59.0303 42.56 -8.70963 -2.3137 71.3146 0 0 0 -9.69198 -38.5196 23.1325 
6.376 -7.6415 -53.7154 1.12068 0.488408 43.3677 26.283 -26.9728 6.04481 -2.73447 23.7472 3.30599 -24.1845 3.59768 -13.1236 -44.2596 -5.64856 -18.6383 4.64867 51.6627 2.23285 28.284 -30.9151 18.1884 3.659 57.7765 7.28833 0 0 0 23.9358 -17.6458 32.8749 -33.7562 -34.069 -21.8277 22.9534 -26.5179 -21.6252 0 0 0 -68.2502 -53.0721 -62.1016 41.5744 -55.9014 34.3116 -8.29438 -3.37972 70.795 0 0 0 -9.41257 -40.8668 20.8021 
6.5167 -7.8775 -54.0494 0.821186 0.8687 44.4408 25.7121 -30.1543 5.58977 -2.74267 24.0725 2.79856 -23.9068 3.92807 -13.3793 -44.7337 -5.91695 -19.4401 4.0779 51.7384 2.71487 25.6241 -31.55 16.1377 0.297923 59.8052 10.8901 0 0 0 26.1213 -22.3373 32.4397 -32.6816 -33.9827 -20.7626 22.8267 -26.6967 -22.4422 0 0 0 -68.8344 -53.9209 -60.2619 32.3725 -52.5248 27.0619 -8.55284 -6.18485 68.3725 0 0 0 -9.16563 -43.6807 18.6261 
6.8657 -7.9252 -54.3356 0.236712 1.52489 45.1233 24.6925 -32.4465 5.41972 -2.72595 23.768 2.63754 -23.9077 3.32419 -13.0493 -45.2411 -6.84709 -19.3073 3.76779 52.0174 2.88935 22.2015 -31.6367 12.9712 -3.27071 61.2783 14.3591 0 0 0 27.7938 -26.5996 31.8684 -30.9602 -33.4319 -19.6797 22.8035 -26.9509 -23.0549 0 0 0 -68.3992 -53.3757 -59.5209 26.4735 -49.4911 22.1608 -9.15963 -10.9561 66.0753 0 0 0 -8.76253 -46.1651 17.2634 
7.373 -7.8926 -54.5566 -0.741752 2.08733 45.7594 23.6404 -33.6161 5.54527 -2.49737 22.7976 2.34759 -23.1002 2.89435 -11.7602 -45.1498 -7.84212 -18.6296 4.20367 52.3993 2.39311 18.5176 -31.3795 9.28373 -4.87088 61.7203 15.7895 0 0 0 28.5813 -29.5514 30.598 -28.3663 -32.613 -18.2384 22.8407 -27.3009 -23.3986 0 0 0 -67.0892 -52.0153 -59.907 22.6288 -47.613 18.3342 -9.92429 -16.1337 62.9122 0 0 0 -8.03878 -47.4671 16.9071 
7.8903 -7.8298 -54.7776 -1.67422 2.3154 46.5058 22.3786 -33.7977 5.81002 -2.18829 21.5562 2.20144 -22.5209 2.66479 -11.1624 -44.8615 -8.63061 -17.9869 4.66737 52.9486 1.82566 15.411 -30.8062 6.21461 -5.5605 61.9378 16.1022 0 0 0 29.0249 -31.728 29.1955 -25.803 -31.5506 -16.6549 22.8732 -27.3189 -23.4837 0 0 0 -65.3144 -50.3594 -61.4123 21.0055 -47.4981 16.0066 -9.56424 -15.8415 58.8797 0 0 0 -6.9133 -48.2784 17.1483 
8.39 -7.6992 -54.9584 -2.41691 2.21935 47.1647 21.4869 -33.1214 5.9398 -1.93718 20.3505 2.06494 -22.4701 2.79596 -11.7976 -44.2892 -8.94273 -17.4805 4.94511 53.5294 1.32004 12.677 -29.7068 3.69036 -5.14331 62.0005 15.1085 0 0 0 29.2121 -32.7063 27.6289 -23.119 -30.3332 -15.147 23.1757 -26.8478 -23.1868 0 0 0 -63.3542 -48.4573 -64.5056 22.4604 -48.8244 16.5142 -8.47777 -12.2164 55.398 0 0 0 -5.51876 -48.59 18.0867 
8.7492 -7.6389 -55.089 -2.65421 1.77051 47.4552 20.8879 -32.6459 5.86556 -1.93051 20.0813 2.37655 -22.7691 2.93149 -12.4797 -43.5808 -8.92049 -17.0514 5.20836 54.4532 0.872275 10.6646 -28.5394 2.11898 -4.69474 62.138 14.0371 0 0 0 29.2232 -32.3766 26.2543 -21.2 -29.2863 -14.1014 23.3619 -26.0148 -22.7546 0 0 0 -60.7833 -45.8291 -68.7106 30.018 -54.1046 22.4708 -9.4658 -10.7189 54.9511 0 0 0 -4.36954 -48.668 19.1885 
8.9752 -7.5561 -55.1869 -2.72884 1.4058 47.6782 20.0731 -31.1688 5.91578 -1.638 18.9648 2.57549 -23.3008 3.00956 -13.2883 -42.8043 -9.07761 -17.2276 5.07949 55.8869 0.873731 9.4722 -27.1965 1.55011 -4.2035 62.0081 12.6434 0 0 0 29.1983 -31.2642 25.3267 -19.6963 -28.2448 -13.523 23.6658 -25.1822 -22.1049 0 0 0 -58.6134 -43.4302 -72.3109 41.6362 -59.2621 32.0665 -9.42067 -8.33778 56.676 0 0 0 -3.15219 -48.4515 20.4665 
8.9626 -7.5059 -55.31 -2.28927 0.961108 47.745 19.5147 -30.1704 6.08525 -1.54337 18.648 2.59967 -24.2431 3.01338 -13.7564 -42.3045 -9.47611 -17.6313 5.13992 58.2174 0.971179 10.0352 -25.9593 2.67885 -3.49756 61.6666 10.8664 0 0 0 28.8878 -29.3078 24.3195 -18.7666 -27.412 -13.0505 23.5293 -24.2131 -21.8629 0 0 0 -57.3371 -42.3975 -74.5604 55.4476 -62.5029 43.9141 -8.71565 -5.3536 60.6297 0 0 0 -2.3178 -47.8456 21.6676 
8.8144 -7.5134 -55.4306 -1.45422 0.402079 47.4977 19.3488 -29.2966 6.12057 -1.57985 18.6569 2.69048 -24.8261 2.97187 -14.0467 -41.8334 -9.98526 -18.2103 5.19308 60.6877 1.21379 11.5218 -24.7247 4.43926 -3.0124 61.4318 9.72546 0 0 0 28.2297 -27.7296 22.9109 -17.7538 -26.6264 -12.4588 23.0232 -23.2263 -21.7664 0 0 0 -57.0674 -42.6519 -74.8159 67.2829 -64.0704 54.5094 -8.84817 -3.36852 65.5167 0 0 0 -2.09 -47.0741 22.2694 
8.4804 -7.5912 -55.5486 -0.286328 -0.118646 47.0463 18.9668 -28.3232 6.14738 -1.64896 18.4919 2.81337 -25.5115 3.19805 -13.6711 -41.5092 -10.5182 -19.0459 4.86504 62.995 1.79137 12.6947 -24.0876 6.18545 -3.2522 61.0918 9.65385 0 0 0 27.2538 -26.3249 21.2322 -17.4258 -26.0865 -11.7895 22.387 -22.4251 -22.192 0 0 0 -57.5148 -43.7077 -73.4868 73.8531 -64.4449 60.7393 -9.1842 -3.21866 69.9137 0 0 0 -2.46106 -46.3009 22.1844 
8.0033 -7.6013 -55.644 1.10116 -0.377592 46.5125 18.8524 -27.631 6.16814 -1.66599 18.3764 2.79061 -26.6021 3.43279 -13.0658 -41.2231 -10.8415 -20.0743 3.8778 64.9298 2.89107 13.7129 -24.1371 7.78635 -3.64523 60.7535 10.0576 0 0 0 26.1314 -25.0433 19.6736 -17.2036 -25.8311 -11.1835 21.8569 -22.2571 -22.2513 0 0 0 -58.5101 -45.5282 -70.8836 72.7395 -63.5573 60.4195 -9.1723 -4.17922 72.4824 0 0 0 -3.45547 -45.6447 21.4341 
7.3855 -7.6892 -55.747 2.5494 -0.758951 46.0096 18.8452 -27.0252 6.11361 -1.93294 18.1701 2.95634 -27.4869 3.58849 -12.4663 -40.8391 -10.9022 -20.8945 2.93292 66.3013 3.80852 15.0728 -25.0821 9.6027 -4.19224 60.4739 10.9552 0 0 0 24.772 -23.866 18.3694 -17.8586 -26.0603 -11.0599 21.6262 -22.3725 -22.4913 0 0 0 -59.3599 -48.1252 -66.9354 63.601 -61.4227 53.2484 -8.86446 -5.47586 74.5128 0 0 0 -4.68875 -44.9857 20.2787 
6.6498 -7.6565 -55.8022 4.01698 -0.877561 45.5503 18.9786 -26.6938 6.23999 -2.07687 17.8322 2.98408 -28.2102 3.35895 -11.9196 -40.5543 -10.9652 -21.5053 2.09187 67.0441 4.70626 16.4576 -26.492 11.0197 -4.75559 60.0847 11.9473 0 0 0 23.4617 -22.6272 17.616 -18.6741 -26.4895 -10.9521 21.6425 -22.7218 -22.3196 0 0 0 -59.6858 -51.2614 -61.4706 49.7435 -57.4953 42.4046 -7.69731 -4.98378 76.0633 0 0 0 -6.01902 -44.2098 18.9779 
5.708 -7.4808 -55.8575 5.45691 -0.930971 45.172 19.2413 -26.6138 6.12843 -2.33749 17.4057 3.16884 -28.62 2.68052 -11.5563 -40.007 -11.1449 -21.9507 2.06518 66.9818 4.85732 17.0014 -28.0952 11.3977 -5.20395 59.9705 13.2136 0 0 0 21.785 -21.4246 17.43 -20.0998 -27.2308 -11.201 21.7181 -22.8939 -22.3578 0 0 0 -58.7516 -53.3514 -55.563 35.351 -51.399 30.854 -6.55995 -4.37776 75.635 0 0 0 -7.91819 -43.5654 17.1424 
